<svg width="60" height="60" viewBox="0 0 60 60" fill="none" xmlns="http://www.w3.org/2000/svg">
<path fill-rule="evenodd" clip-rule="evenodd" d="M29.9083 0.720001C13.3945 0.720001 0 14.1145 0 30.6283C0 43.8393 8.62385 55.0319 20.367 59.0686C21.8349 59.2521 22.3853 58.3347 22.3853 57.6007C22.3853 56.8668 22.3853 55.0319 22.3853 52.4631C14.1284 54.298 12.2936 48.4264 12.2936 48.4264C11.0092 44.9402 8.99083 44.0228 8.99083 44.0228C6.23853 42.1879 9.17431 42.1879 9.17431 42.1879C12.1101 42.3714 13.7615 45.3072 13.7615 45.3072C16.5138 49.8943 20.7339 48.6099 22.3853 47.876C22.5688 45.8576 23.4862 44.5732 24.2202 43.8393C17.6147 43.1053 10.6422 40.5365 10.6422 28.9769C10.6422 25.6741 11.7431 23.1053 13.7615 20.9035C13.578 20.353 12.4771 17.2338 14.1284 13.1971C14.1284 13.1971 16.6972 12.4631 22.3853 16.3163C24.7706 15.5824 27.3394 15.3989 29.9083 15.3989C32.4771 15.3989 35.0459 15.7659 37.4312 16.3163C43.1193 12.4631 45.6881 13.1971 45.6881 13.1971C47.3394 17.2338 46.2385 20.353 46.055 21.087C47.8899 23.1053 49.1743 25.8576 49.1743 29.1604C49.1743 40.72 42.2018 43.1053 35.5963 43.8393C36.6972 44.7567 37.6147 46.5916 37.6147 49.3439C37.6147 53.3806 37.6147 56.4998 37.6147 57.6007C37.6147 58.3347 38.1651 59.2521 39.633 59.0686C51.5596 55.0319 60 43.8393 60 30.6283C59.8165 14.1145 46.422 0.720001 29.9083 0.720001Z" fill="white"/>
</svg>
