<svg width="80" height="60" viewBox="0 0 80 60" fill="none" xmlns="http://www.w3.org/2000/svg">
<path d="M67.7943 5.02677C67.7591 4.99156 67.703 4.94811 67.6577 4.92749C62.6303 2.64051 57.2125 0.979056 51.559 0.0203627C51.4787 0.00674466 51.3912 -0.00718687 51.3138 0.018217C51.1929 0.0579061 51.1256 0.175372 51.0627 0.285948C50.985 0.422206 50.9071 0.562242 50.8291 0.705166C49.7262 2.72623 47.5469 3.94191 45.2531 3.74224C41.9353 3.45342 38.6341 3.43293 35.362 3.68076C32.6935 3.88286 30.1318 2.4338 28.7872 0.119969C28.7038 -0.0468638 28.4545 0.0153214 28.2707 0.0469815C22.6827 1.00928 17.3268 2.69488 12.3526 4.91689C12.2909 4.94442 12.2259 4.95777 12.1759 5.00309C12.1536 5.02327 12.1304 5.05148 12.1135 5.07635C1.76938 20.2992 -1.06617 35.1629 0.333357 49.827C0.333357 49.9905 0.52042 50.0759 0.652941 50.1718C7.38663 55.0442 13.9634 58.0044 20.3831 59.9843C20.5793 60.0496 20.7248 59.8207 20.846 59.6532C22.2962 57.6511 23.6313 55.5722 24.7453 53.346C24.9001 53.1139 24.4927 52.9379 24.2322 52.8382C22.2116 52.0644 20.2616 51.1186 18.3822 50.0669C18.2221 49.9869 18.2221 49.747 18.3421 49.667C18.6769 49.3994 19.0397 49.1318 19.3836 48.8642C19.5166 48.7607 19.6721 48.5919 19.8229 48.6673C32.9092 54.5457 47.1162 54.5457 60.0425 48.6673C60.1225 48.6273 60.2426 48.6273 60.3226 48.7073C60.7228 49.0272 61.123 49.3471 61.5632 49.667C61.7233 49.787 61.6833 49.9869 61.5232 50.0669C59.5222 51.2266 57.4412 52.1864 55.2801 52.9861C55.1201 53.0261 55.08 53.1861 55.1601 53.346C56.3118 55.5328 57.6109 57.6459 59.0573 59.6147C59.1798 59.7814 59.326 60.0097 59.5222 59.9443C66.0269 57.9505 72.6509 54.9626 79.4737 50.0687C79.5123 50.041 79.5424 50.02 79.5686 49.9803C79.6278 49.8905 79.6576 49.7714 79.6679 49.6643C81.3029 32.751 76.829 18.0969 67.8278 5.06987C67.8135 5.04917 67.8121 5.04456 67.7943 5.02677ZM26.7062 40.9093C22.7443 40.9093 19.5027 37.3502 19.5027 32.9914C19.5027 28.6325 22.7043 25.0734 26.7062 25.0734C30.7482 25.0734 33.9497 28.6725 33.9097 32.9914C33.9097 37.3502 30.7082 40.9093 26.7062 40.9093ZM53.3192 40.9093C49.3573 40.9093 46.1157 37.3502 46.1157 32.9914C46.1157 28.6325 49.3172 25.0734 53.3192 25.0734C57.3612 25.0734 60.5627 28.6725 60.5227 32.9914C60.5227 37.3502 57.3612 40.9093 53.3192 40.9093Z" fill="white"/>
</svg>
