<svg width="61" height="51" viewBox="0 0 61 51" fill="none" xmlns="http://www.w3.org/2000/svg">
<path d="M4.37469 21.9061C20.4808 14.8889 31.2207 10.2628 36.5944 8.02766C51.9376 1.64593 55.1257 0.537351 57.2037 0.500355C57.6608 0.492694 58.6827 0.605961 59.3446 1.14308C59.9036 1.59662 60.0574 2.20928 60.1309 2.63929C60.2045 3.06929 60.2962 4.04884 60.2233 4.81424C59.3919 13.5504 55.7942 34.7506 53.9639 44.5352C53.1895 48.6754 51.6645 50.0636 50.1882 50.1995C46.9798 50.4947 44.5435 48.0791 41.436 46.0421C36.5734 42.8547 33.8264 40.8704 29.1064 37.76C23.6516 34.1654 27.1877 32.1897 30.2963 28.961C31.1099 28.116 45.2461 15.258 45.5197 14.0916C45.554 13.9457 45.5857 13.4019 45.2627 13.1148C44.9396 12.8276 44.4628 12.9258 44.1188 13.0039C43.6311 13.1146 35.863 18.249 20.8146 28.4071C18.6097 29.9212 16.6125 30.6589 14.8231 30.6202C12.8504 30.5776 9.05583 29.5049 6.23493 28.5879C2.77498 27.4632 0.0250811 26.8686 0.264536 24.9585C0.389258 23.9636 1.75931 22.9462 4.37469 21.9061Z" fill="white"/>
</svg>
