<svg width="67" height="50" viewBox="0 0 67 50" fill="none" xmlns="http://www.w3.org/2000/svg">
<path d="M65.325 7.58929C64.4875 4.46429 62.3938 2.23214 59.4626 1.33929C54.4375 7.98276e-07 33.0812 0 33.0812 0C33.0812 0 12.1438 7.98276e-07 6.70003 1.33929C3.76878 2.23214 1.67499 4.46429 0.837487 7.58929C-1.27917e-05 13.3929 0 25 0 25C0 25 1.27293e-05 36.6071 1.25626 42.4107C2.09376 45.5357 4.18749 47.7679 7.11874 48.6607C12.1437 50 33.5 50 33.5 50C33.5 50 54.4375 50 59.8812 48.6607C62.8125 47.7679 64.9063 45.5357 65.7438 42.4107C67.0001 36.6071 67 25 67 25C67 25 67 13.3929 65.325 7.58929ZM26.8 35.7143V14.2857L44.3875 25L26.8 35.7143Z" fill="white"/>
</svg>
